<?xml version="1.0" encoding="utf-8"?>
<!-- Generator: Adobe Illustrator 16.0.0, SVG Export Plug-In . SVG Version: 6.00 Build 0)  -->
<!DOCTYPE svg PUBLIC "-//W3C//DTD SVG 1.1//EN" "http://www.w3.org/Graphics/SVG/1.1/DTD/svg11.dtd">
<svg version="1.1" id="Layer_1" xmlns="http://www.w3.org/2000/svg" xmlns:xlink="http://www.w3.org/1999/xlink" x="0px" y="0px"
	 width="807px" height="397px" viewBox="0 0 807 397" enable-background="new 0 0 807 397" xml:space="preserve">
<g id="Design" opacity="0.5">
	<g id="_x30_1-weblogies-Home-Page-option1" transform="translate(-317 -7915)">
		<g id="::FOOTER::" transform="translate(0 7845)">
			<g id="Map" transform="translate(317 70)">
				<path id="Fill-1" fill="#EA4F4C" d="M286.146,5.793h53.482V0h-53.482V5.793z M209.84,5.793h53.482V0H209.84V5.793z
					 M562.753,15.334h5.79V9.542h-5.79V15.334L562.753,15.334z M543.677,9.542v5.792l15.328,0.001V9.542H543.677z M200.301,9.542
					v5.793h129.788V9.541L200.301,9.542L200.301,9.542z M515.063,19.083v5.793h91.636v-5.793H515.063z M495.986,24.877h5.79v-5.793
					h-5.79V24.877z M257.532,19.083v5.793c21.005-0.002,42.012,0,63.019,0v-5.793H257.532L257.532,19.083z M171.688,24.877h43.944
					v-5.793h-43.944V24.877z M133.534,24.877h24.867v-5.793h-24.867V24.877z M400.614,34.416l34.396,0.002v-5.793l-34.395-0.003
					L400.614,34.416L400.614,34.416z M486.449,34.418h225.169v-5.792H486.449V34.418L486.449,34.418z M267.069,34.418h53.483v-5.792
					H267.07L267.069,34.418L267.069,34.418z M171.688,34.418h53.482v-5.792h-53.482V34.418z M104.921,34.418h53.481v-5.792h-53.48
					L104.921,34.418L104.921,34.418z M38.153,34.418h43.944v-5.792H38.153V34.418L38.153,34.418z M391.066,43.958H749.77v-5.79
					H391.066V43.958L391.066,43.958z M314.761,43.958h15.329v-5.79h-15.329V43.958z M257.531,43.958h24.867v-5.79h-24.866
					L257.531,43.958L257.531,43.958z M19.076,43.958H234.71v-5.79H19.076V43.958L19.076,43.958z M734.442,53.501h5.79V47.71h-5.79
					V53.501L734.442,53.501z M400.615,47.71v5.79c70.055,0,290.106,0.01,330.078,0v-5.79H400.615z M381.528,47.71v5.79h15.329
					v-5.792h-15.329V47.71z M257.532,53.5h15.328v-5.79h-15.328V53.5z M190.765,53.5h34.405v-5.79h-34.405V53.5z M9.538,53.5H171.7
					v-5.79H9.54v5.79H9.538z M715.364,63.042h5.79V57.25h-5.79V63.042L715.364,63.042z M410.144,63.042h263.32V57.25h-263.32V63.042
					L410.144,63.042z M371.99,57.25v5.793h24.867V57.25H371.99z M200.302,57.25v5.793h15.33V57.25H200.302z M57.23,57.252v5.79h101
					V57.25L57.23,57.252z M190.765,63.042h5.79V57.25h-5.79V63.042L190.765,63.042z M9.538,63.042h15.33V57.25H9.538V63.042
					L9.538,63.042z M410.143,72.584h263.322v-5.792H410.143V72.584z M381.528,72.584h5.79v-5.792h-5.79V72.584z M343.376,72.584
					h15.328v-5.792h-15.328V72.584z M190.766,72.584h34.405v-5.791l-34.406-0.001L190.766,72.584L190.766,72.584z M57.229,72.584
					h114.459v-5.792H57.228L57.229,72.584L57.229,72.584z M715.366,72.584h5.79v-5.792h-5.79V72.584z M0,72.584h5.79v-5.792H0
					V72.584z M715.366,82.126h15.327v-5.793h-15.327V82.126z M371.99,82.126h320.55v-5.793H371.99V82.126L371.99,82.126z
					 M343.376,82.126h15.328v-5.793h-15.328V82.126z M333.838,82.126h5.79v-5.793h-5.79V82.126z M209.839,82.126h15.33v-5.793
					h-15.33V82.126z M57.229,82.126h148.864v-5.793H57.23L57.229,82.126L57.229,82.126z M352.914,91.668h349.165v-5.793H352.914
					V91.668z M57.229,91.668h148.87v-5.793H57.228L57.229,91.668L57.229,91.668z M705.826,101.209h5.79v-5.793h-5.79V101.209z
					 M343.376,95.416v5.794c27.365,0,54.73,0.01,82.096-0.001v-5.794L343.376,95.416z M486.448,95.416v5.793l193.359,0.001
					l16.48-0.001v-5.793H486.448L486.448,95.416z M457.833,101.21h15.328v-5.792h-15.328V101.21z M438.755,101.209h5.79v-5.791
					h-5.79V101.209z M57.23,95.416v5.794h148.865v-5.794C156.474,95.419,106.852,95.416,57.23,95.416z M705.825,110.751h15.33
					v-5.792h-15.33V110.751z M495.987,104.958v5.794l187.015-0.001v-5.793H495.987L495.987,104.958z M457.834,104.958v5.793h15.328
					v-5.793H457.834z M381.529,110.751h43.943v-5.792h-43.943V110.751z M333.839,110.751h34.404v-5.792h-34.404V110.751z
					 M47.69,104.958v5.794l129.788-0.001v-5.793H47.69z M705.826,120.293h5.79v-5.792h-5.79V120.293z M677.212,120.293h5.79v-5.792
					h-5.79V120.293z M495.986,120.293h158.401v-5.792H495.986V120.293L495.986,120.293z M429.218,120.293H482.7v-5.792h-53.482
					V120.293L429.218,120.293z M410.143,120.293h5.79v-5.792h-5.79V120.293z M333.838,120.293h24.866v-5.792h-24.866V120.293z
					 M47.69,120.293h120.25v-5.792H47.69V120.293L47.69,120.293z M696.288,129.833h15.329v-5.79h-15.329V129.833z M677.211,129.833
					H683v-5.79h-5.79L677.211,129.833L677.211,129.833z M448.296,129.833h215.63v-5.79h-215.63V129.833z M47.69,129.833h110.711
					v-5.79H47.691L47.69,129.833L47.69,129.833z M696.288,139.376h5.79v-5.792h-5.79V139.376z M448.295,139.376h215.63v-5.792
					h-215.63V139.376z M410.143,139.376h15.329v-5.792h-15.329V139.376z M333.838,139.376h63.021v-5.792h-63.021V139.376z
					 M57.228,139.376h91.635v-5.792H57.229L57.228,139.376L57.228,139.376z M448.295,148.916h225.17v-5.79h-225.17V148.916z
					 M324.3,148.916h120.248v-5.79H324.3V148.916z M143.072,148.916h5.79v-5.79h-5.79V148.916z M57.229,148.916h53.482v-5.79H57.229
					V148.916L57.229,148.916z M667.673,158.459h5.79v-5.792h-5.79V158.459z M457.833,158.459h206.092v-5.792H457.833V158.459
					L457.833,158.459z M314.761,158.459h139.326v-5.792H314.761V158.459z M57.229,158.459h43.943v-5.792H57.23L57.229,158.459
					L57.229,158.459z M76.306,168l15.328,0.002v-5.793c-5.11,0.002-10.219,0-15.328,0V168z M543.676,168.002h120.25v-5.793h-120.25
					V168.002z M457.833,168.002h53.482v-5.793h-53.482V168V168.002z M314.766,168.002h139.32v-5.793c-46.439,0.004-92.88,0-139.32,0
					V168V168.002z M133.534,162.209v5.793h24.617v-5.794L133.534,162.209z M648.597,177.543h5.79v-5.792h-5.79V177.543z
					 M610.446,171.751v5.792h34.403v-5.793L610.446,171.751L610.446,171.751z M143.072,177.543h43.944v-5.792l-43.944-0.001V177.543
					z M562.754,171.751h-9.538v5.794h34.405v-5.794H562.754L562.754,171.751z M467.372,171.751v5.794l43.942-0.002v-5.792H467.372z
					 M305.222,171.751v5.792c48.426,0,96.85,0.056,145.276,0.056c0-0.054,3.587-0.054,3.587-0.054v-5.794
					C404.463,171.751,354.849,171.757,305.222,171.751L305.222,171.751z M76.306,177.543h43.944v-5.792H76.306V177.543
					L76.306,177.543z M677.212,187.085h5.79v-5.793h-5.79V187.085z M610.446,187.085h34.403v-5.793h-34.403V187.085z
					 M553.216,187.085h24.866v-5.793h-24.866V187.085z M476.91,187.085h15.329v-5.793H476.91V187.085L476.91,187.085z
					 M305.222,187.085h158.401v-5.793h-158.4L305.222,187.085L305.222,187.085z M85.844,187.085h43.943v-5.793H85.844
					L85.844,187.085L85.844,187.085z M553.216,196.627h15.328v-5.793l-15.328-0.001V196.627z M686.75,196.627h5.79v-5.793h-5.79
					V196.627z M677.212,196.627h5.79v-5.793h-5.79V196.627z M619.982,196.627h24.867v-5.793h-24.867V196.627z M314.762,190.834
					v5.794l158.4-0.001v-5.793H314.762z M114.458,196.627h15.329v-5.793h-15.329V196.627L114.458,196.627z M152.612,200.375v5.793
					l34.404-0.001v-5.793C175.548,200.374,164.08,200.379,152.612,200.375z M686.749,206.168h5.79v-5.793h-5.79V206.168z
					 M629.522,206.168h15.327v-5.793h-15.327V206.168z M619.982,206.168h5.79v-5.793h-5.79V206.168z M562.752,206.168h15.33v-5.793
					h-15.33V206.168z M314.762,206.168h177.476v-5.793H314.761L314.762,206.168L314.762,206.168z M123.996,206.168h15.33v-5.793
					h-15.33V206.168z M696.288,215.71h5.79v-5.793h-5.79V215.71z M686.749,215.71h5.79v-5.793h-5.79V215.71z M667.673,215.71h5.79
					v-5.793h-5.79V215.71z M629.523,215.71h5.79v-5.793h-5.79V215.71z M572.293,215.707h5.79v-5.791h-5.79V215.707z M324.298,215.71
					h167.94v-5.793h-167.94V215.71z M143.072,215.71h53.482v-5.793h-53.482V215.71z M619.982,225.251h5.79v-5.792h-5.79V225.251
					L619.982,225.251z M381.528,225.251l91.633,0.001v-5.792l-91.633-0.001V225.251L381.528,225.251z M143.072,225.251l72.56,0.001
					v-5.792c-24.187,0.002-48.373-0.001-72.56-0.001V225.251L143.072,225.251z M658.137,225.252h15.328v-5.792h-15.33v5.792H658.137
					z M629.522,225.252h5.79v-5.792h-5.79V225.252L629.522,225.252z M715.366,234.792h5.79v-5.79h-5.79V234.792z M658.137,234.792
					l15.328,0.002V229h-15.328v5.79V234.792z M648.598,234.792h5.789v-5.79h-5.789V234.792z M629.522,234.792h5.79v-5.79h-5.79
					V234.792z M619.984,234.792h5.79v-5.79h-5.79V234.792z M371.99,234.792h101.17v-5.79H371.99V234.792L371.99,234.792z
					 M133.534,229.002v5.792l91.637-0.001V229L133.534,229.002L133.534,229.002z M724.903,244.334l24.867,0.001v-5.792
					l-24.867-0.001V244.334L724.903,244.334z M639.061,244.334h5.79v-5.792h-5.79V244.334L639.061,244.334z M763.057,244.335h5.789
					v-5.792h-5.789V244.335L763.057,244.335z M715.366,244.335h5.79v-5.792h-5.79V244.335L715.366,244.335z M658.136,244.335h5.79
					v-5.792h-5.79V244.335L658.136,244.335z M629.522,244.335h5.79v-5.792h-5.79V244.335L629.522,244.335z M381.528,244.335h82.095
					v-5.792h-82.095V244.335L381.528,244.335z M133.534,244.335h120.249v-5.792H133.534V244.335L133.534,244.335z M677.212,244.336
					h5.79v-5.792h-5.79V244.336L677.212,244.336z M724.902,253.876h53.482v-5.792h-53.481L724.902,253.876L724.902,253.876z
					 M639.061,253.876h5.789v-5.792h-5.789V253.876z M391.066,253.876c24.186-0.003,48.373,0,72.558,0v-5.792h-72.558V253.876z
					 M133.534,253.876h129.788v-5.792H133.534V253.876L133.534,253.876z M648.6,253.876h5.789v-5.79H648.6V253.876z
					 M782.132,263.418h5.79v-5.792h-5.79V263.418z M677.212,263.418h5.79v-5.792h-5.79V263.418z M667.672,263.418h5.791v-5.792
					h-5.79L667.672,263.418L667.672,263.418z M391.067,263.418h72.557v-5.792h-72.557V263.418z M143.074,257.626v5.794
					l120.248-0.002v-5.793L143.074,257.626L143.074,257.626z M686.749,263.42h5.79v-5.793h-5.79V263.42z M801.209,272.96H807v-5.793
					h-5.79L801.209,272.96L801.209,272.96z M734.442,272.96h5.79v-5.793h-5.79V272.96z M705.825,272.96h15.329v-5.793h-15.329
					V272.96z M486.449,272.96h5.79v-5.793h-5.79V272.96z M391.067,272.96h72.557v-5.793h-72.557V272.96z M143.072,272.96h110.712
					v-5.793H143.072L143.072,272.96L143.072,272.96z M686.749,282.5l34.406,0.001v-5.792c-11.468,0.001-22.937-0.001-34.406-0.001
					V282.5z M391.066,276.709v5.792h72.558v-5.793L391.066,276.709L391.066,276.709z M801.21,282.5H807v-5.792h-5.79V282.5z
					 M734.442,282.5h15.327v-5.792h-15.327V282.5z M476.909,282.5h15.328v-5.792H476.91L476.909,282.5L476.909,282.5z
					 M152.612,282.5h101.16v-5.792h-101.16V282.5z M677.211,292.04h72.561v-5.792h-72.561V292.04L677.211,292.04z M391.066,286.25
					v5.792l63.02-0.001v-5.793L391.066,286.25L391.066,286.25z M171.688,286.25v5.792l72.557-0.001v-5.793L171.688,286.25
					L171.688,286.25z M791.67,292.042h5.79v-5.793h-5.79V292.042z M476.909,292.042h5.79v-5.793h-5.79V292.042z M791.67,301.582
					h5.79v-5.791h-5.79V301.582z M658.136,295.792v5.793c33.725,0,67.447-0.003,101.172-0.003v-5.791L658.136,295.792
					L658.136,295.792z M400.615,301.582c21.005,0,32.463,0.003,53.47,0.003v-5.793l-53.47-0.001V301.582L400.615,301.582z
					 M171.689,301.582c24.186,0,48.371,0.003,72.556,0.003v-5.793l-72.556-0.001V301.582L171.689,301.582z M467.372,301.585h15.327
					v-5.793h-15.327V301.585z M658.136,305.334v5.792h101.173v-5.794L658.136,305.334z M467.372,311.125l15.327,0.001v-5.792
					l-15.327-0.002V311.125z M400.605,311.125h43.941v-5.793h-43.941V311.125z M171.688,311.125h53.482v-5.793h-53.482V311.125z
					 M400.551,320.665l15.382,0.002c0-0.002,17.505,0,19.077,0v-5.793h-34.46L400.551,320.665L400.551,320.665z M658.136,320.667
					h101.173v-5.792H658.136V320.667L658.136,320.667z M171.688,320.667h53.482v-5.792l-53.482-0.001V320.667z M658.136,330.209
					h91.636v-5.792h-91.636V330.209z M425.471,324.417c0-0.003-23.27,0-24.854,0v5.793c11.465,0,22.929,0.002,34.395,0v-5.794
					L425.471,324.417L425.471,324.417z M171.688,330.209h53.482v-5.792h-53.482V330.209z M171.688,333.959v5.792l34.405-0.001
					v-5.793L171.688,333.959L171.688,333.959z M801.208,339.751h5.79v-5.792h-5.79V339.751z M705.826,339.751h34.405v-5.792h-34.405
					V339.751L705.826,339.751z M410.144,339.751h5.79v-5.792h-5.79V339.751z M801.21,349.292H807V343.5h-5.79V349.292
					L801.21,349.292z M791.67,349.292h5.79V343.5h-5.79V349.292z M715.366,349.292h15.328V343.5h-15.328V349.292z M171.688,349.292
					h34.41V343.5h-34.41V349.292z M772.594,358.832h24.866v-5.79h-24.866V358.832z M715.364,358.832h5.79v-5.79h-5.79V358.832z
					 M171.688,358.832h24.866v-5.79h-24.866V358.832z M763.056,368.374l15.329,0.001v-5.792l-15.329-0.001V368.374z
					 M181.227,368.375h15.327v-5.792h-15.327V368.375z M181.226,377.915h15.328v-5.79h-15.328V377.915z M190.766,387.458h5.788
					v-5.792h-5.789L190.766,387.458L190.766,387.458z M200.302,397h5.79v-5.793h-5.79V397z"/>
			</g>
		</g>
	</g>
</g>
</svg>
