<?xml version="1.0" encoding="utf-8"?>
<!-- Generator: Adobe Illustrator 16.0.0, SVG Export Plug-In . SVG Version: 6.00 Build 0)  -->
<!DOCTYPE svg PUBLIC "-//W3C//DTD SVG 1.1//EN" "http://www.w3.org/Graphics/SVG/1.1/DTD/svg11.dtd">
<svg version="1.1" id="Layer_1" xmlns="http://www.w3.org/2000/svg" xmlns:xlink="http://www.w3.org/1999/xlink" x="0px" y="0px"
	 width="88px" height="16px" viewBox="0 0 88 16" enable-background="new 0 0 88 16" xml:space="preserve">
<path fill="#FF9800" d="M15.986,6.09c-0.031-0.107-0.122-0.187-0.232-0.205l-5.18-0.79L8.257,0.168C8.211,0.067,8.111,0.001,8,0
	C7.889,0.001,7.789,0.067,7.743,0.168L5.426,5.095l-5.18,0.79C0.136,5.903,0.045,5.983,0.014,6.09
	C-0.02,6.198,0.008,6.315,0.086,6.397l3.75,3.835L2.95,15.648c-0.019,0.111,0.025,0.225,0.114,0.293
	c0.087,0.068,0.206,0.078,0.302,0.023L8,13.408l4.634,2.557c0.097,0.053,0.215,0.045,0.302-0.023
	c0.089-0.069,0.132-0.182,0.113-0.293l-0.884-5.416l3.749-3.835C15.993,6.315,16.02,6.197,15.986,6.09L15.986,6.09z M33.986,6.09
	c-0.031-0.107-0.122-0.187-0.232-0.205l-5.18-0.79l-2.317-4.927C26.211,0.067,26.111,0.001,26,0
	c-0.111,0.001-0.211,0.067-0.257,0.168l-2.317,4.927l-5.18,0.79c-0.11,0.019-0.201,0.098-0.232,0.205
	c-0.034,0.108-0.006,0.226,0.072,0.307l3.75,3.835l-0.886,5.416c-0.019,0.111,0.025,0.225,0.114,0.293
	c0.087,0.068,0.206,0.078,0.302,0.023L26,13.408l4.634,2.557c0.097,0.053,0.215,0.045,0.302-0.023
	c0.089-0.069,0.132-0.182,0.113-0.293l-0.884-5.416l3.749-3.835C33.993,6.315,34.02,6.197,33.986,6.09L33.986,6.09z M51.986,6.09
	c-0.031-0.107-0.122-0.187-0.232-0.205l-5.18-0.79l-2.317-4.927C44.211,0.067,44.111,0.001,44,0
	c-0.111,0.001-0.211,0.067-0.257,0.168l-2.317,4.927l-5.18,0.79c-0.11,0.019-0.201,0.098-0.232,0.205
	c-0.034,0.108-0.006,0.226,0.072,0.307l3.75,3.835l-0.886,5.416c-0.019,0.111,0.025,0.225,0.114,0.293
	c0.087,0.068,0.206,0.078,0.302,0.023L44,13.408l4.634,2.557c0.097,0.053,0.216,0.045,0.302-0.023
	c0.09-0.069,0.133-0.182,0.113-0.293l-0.884-5.416l3.749-3.835C51.992,6.315,52.02,6.197,51.986,6.09L51.986,6.09z M69.986,6.09
	c-0.031-0.107-0.122-0.187-0.232-0.205l-5.18-0.79l-2.317-4.927C62.211,0.067,62.111,0.001,62,0
	c-0.111,0.001-0.211,0.067-0.257,0.168l-2.317,4.927l-5.18,0.79c-0.11,0.019-0.201,0.098-0.232,0.205
	c-0.033,0.108-0.006,0.226,0.072,0.307l3.75,3.835l-0.886,5.416c-0.019,0.111,0.024,0.225,0.114,0.293
	c0.086,0.068,0.205,0.078,0.302,0.023L62,13.408l4.634,2.557c0.097,0.053,0.216,0.045,0.302-0.023
	c0.09-0.069,0.133-0.182,0.113-0.293l-0.884-5.416l3.749-3.835C69.992,6.315,70.02,6.197,69.986,6.09L69.986,6.09z M87.986,6.09
	c-0.031-0.107-0.122-0.187-0.232-0.205l-5.18-0.79l-2.317-4.927C80.211,0.067,80.111,0.001,80,0
	c-0.111,0.001-0.211,0.067-0.257,0.168l-2.317,4.927l-5.18,0.79c-0.11,0.019-0.201,0.098-0.232,0.205
	c-0.033,0.108-0.006,0.226,0.072,0.307l3.75,3.835l-0.886,5.416c-0.019,0.111,0.024,0.225,0.114,0.293
	c0.086,0.068,0.205,0.078,0.302,0.023L80,13.408l4.634,2.557c0.097,0.053,0.216,0.045,0.302-0.023
	c0.09-0.069,0.133-0.182,0.113-0.293l-0.884-5.416l3.749-3.835C87.992,6.315,88.02,6.197,87.986,6.09L87.986,6.09z"/>
</svg>
