<?xml version="1.0" encoding="utf-8"?>
<!-- Generator: Adobe Illustrator 16.0.0, SVG Export Plug-In . SVG Version: 6.00 Build 0)  -->
<!DOCTYPE svg PUBLIC "-//W3C//DTD SVG 1.1//EN" "http://www.w3.org/Graphics/SVG/1.1/DTD/svg11.dtd">
<svg version="1.1" id="Layer_1" xmlns="http://www.w3.org/2000/svg" xmlns:xlink="http://www.w3.org/1999/xlink" x="0px" y="0px"
	 width="116px" height="102px" viewBox="0 0 116 102" enable-background="new 0 0 116 102" xml:space="preserve">
<g transform="translate(-27)">
	
		<linearGradient id="_x201D__1_" gradientUnits="userSpaceOnUse" x1="63.1333" y1="73.123" x2="63.1333" y2="72.123" gradientTransform="matrix(116 0 0 -102 -7238.5 7458.5)">
		<stop  offset="0" style="stop-color:#FDC010"/>
		<stop  offset="1" style="stop-color:#F15925"/>
	</linearGradient>
	<path id="_x201D_" fill="url(#_x201D__1_)" d="M31.955,102V87.43c4.625-2.363,8.093-6.828,10.405-13.391
		c2.313-6.564,3.469-15.229,3.469-25.993v-4.332H27V0h44v32.687c0,19.954-3.27,35.708-9.81,47.258
		C54.648,91.498,44.903,98.85,31.955,102L31.955,102z M103.955,102V87.43c4.625-2.363,8.093-6.828,10.404-13.391
		c2.313-6.564,3.47-15.229,3.47-25.993v-4.332H99V0h44v32.687c0,19.954-3.27,35.708-9.811,47.258
		C126.648,91.498,116.904,98.85,103.955,102z"/>
</g>
</svg>
